<mxfile host="app.diagrams.net" agent="Mozilla/5.0 (X11; Ubuntu; Linux x86_64; rv:132.0) Gecko/20100101 Firefox/132.0" version="26.0.9">
  <diagram name="Page-1" id="YD3D2G_b-R3yKnvV5IHv">
    <mxGraphModel dx="1434" dy="747" grid="1" gridSize="10" guides="1" tooltips="1" connect="1" arrows="1" fold="1" page="1" pageScale="1" pageWidth="850" pageHeight="1100" math="0" shadow="0">
      <root>
        <mxCell id="0" />
        <mxCell id="1" parent="0" />
        <mxCell id="pVk70oFYf1Jw7404yLWw-3" value="" style="edgeStyle=orthogonalEdgeStyle;rounded=0;orthogonalLoop=1;jettySize=auto;html=1;" parent="1" source="pVk70oFYf1Jw7404yLWw-1" target="pVk70oFYf1Jw7404yLWw-2" edge="1">
          <mxGeometry relative="1" as="geometry" />
        </mxCell>
        <mxCell id="pVk70oFYf1Jw7404yLWw-1" value="Start" style="ellipse;whiteSpace=wrap;html=1;" parent="1" vertex="1">
          <mxGeometry x="365" width="120" height="80" as="geometry" />
        </mxCell>
        <mxCell id="pVk70oFYf1Jw7404yLWw-5" value="" style="edgeStyle=orthogonalEdgeStyle;rounded=0;orthogonalLoop=1;jettySize=auto;html=1;" parent="1" source="pVk70oFYf1Jw7404yLWw-2" edge="1">
          <mxGeometry relative="1" as="geometry">
            <mxPoint x="425" y="251" as="targetPoint" />
          </mxGeometry>
        </mxCell>
        <mxCell id="pVk70oFYf1Jw7404yLWw-2" value="read n" style="shape=parallelogram;perimeter=parallelogramPerimeter;whiteSpace=wrap;html=1;fixedSize=1;" parent="1" vertex="1">
          <mxGeometry x="365" y="139" width="120" height="60" as="geometry" />
        </mxCell>
        <mxCell id="pVk70oFYf1Jw7404yLWw-11" value="" style="edgeStyle=orthogonalEdgeStyle;rounded=0;orthogonalLoop=1;jettySize=auto;html=1;" parent="1" edge="1">
          <mxGeometry relative="1" as="geometry">
            <mxPoint x="350" y="400" as="sourcePoint" />
            <mxPoint x="258" y="400" as="targetPoint" />
          </mxGeometry>
        </mxCell>
        <mxCell id="pVk70oFYf1Jw7404yLWw-12" value="FALSE" style="edgeLabel;html=1;align=center;verticalAlign=middle;resizable=0;points=[];" parent="pVk70oFYf1Jw7404yLWw-11" vertex="1" connectable="0">
          <mxGeometry x="-0.0652" y="2" relative="1" as="geometry">
            <mxPoint as="offset" />
          </mxGeometry>
        </mxCell>
        <mxCell id="pVk70oFYf1Jw7404yLWw-16" value="" style="edgeStyle=orthogonalEdgeStyle;rounded=0;orthogonalLoop=1;jettySize=auto;html=1;" parent="1" target="pVk70oFYf1Jw7404yLWw-15" edge="1">
          <mxGeometry relative="1" as="geometry">
            <mxPoint x="425" y="440" as="sourcePoint" />
          </mxGeometry>
        </mxCell>
        <mxCell id="pVk70oFYf1Jw7404yLWw-26" value="TRUE" style="edgeLabel;html=1;align=center;verticalAlign=middle;resizable=0;points=[];" parent="pVk70oFYf1Jw7404yLWw-16" vertex="1" connectable="0">
          <mxGeometry x="-0.1877" y="1" relative="1" as="geometry">
            <mxPoint as="offset" />
          </mxGeometry>
        </mxCell>
        <mxCell id="pVk70oFYf1Jw7404yLWw-6" value="if n &amp;gt; 0" style="rhombus;whiteSpace=wrap;html=1;" parent="1" vertex="1">
          <mxGeometry x="350" y="360" width="150" height="80" as="geometry" />
        </mxCell>
        <mxCell id="pVk70oFYf1Jw7404yLWw-10" value="write &quot; errore e termina&quot;" style="shape=parallelogram;perimeter=parallelogramPerimeter;whiteSpace=wrap;html=1;fixedSize=1;" parent="1" vertex="1">
          <mxGeometry x="148" y="370" width="120" height="60" as="geometry" />
        </mxCell>
        <mxCell id="pVk70oFYf1Jw7404yLWw-13" value="End" style="ellipse;whiteSpace=wrap;html=1;" parent="1" vertex="1">
          <mxGeometry x="148" y="680" width="80" height="80" as="geometry" />
        </mxCell>
        <mxCell id="pVk70oFYf1Jw7404yLWw-23" value="" style="edgeStyle=orthogonalEdgeStyle;rounded=0;orthogonalLoop=1;jettySize=auto;html=1;" parent="1" source="pVk70oFYf1Jw7404yLWw-15" target="pVk70oFYf1Jw7404yLWw-22" edge="1">
          <mxGeometry relative="1" as="geometry" />
        </mxCell>
        <mxCell id="pVk70oFYf1Jw7404yLWw-46" value="FALSE" style="edgeLabel;html=1;align=center;verticalAlign=middle;resizable=0;points=[];" parent="pVk70oFYf1Jw7404yLWw-23" vertex="1" connectable="0">
          <mxGeometry relative="1" as="geometry">
            <mxPoint as="offset" />
          </mxGeometry>
        </mxCell>
        <mxCell id="pVk70oFYf1Jw7404yLWw-30" style="edgeStyle=orthogonalEdgeStyle;rounded=0;orthogonalLoop=1;jettySize=auto;html=1;exitX=0;exitY=0.5;exitDx=0;exitDy=0;entryX=0.5;entryY=1;entryDx=0;entryDy=0;" parent="1" source="pVk70oFYf1Jw7404yLWw-15" target="pVk70oFYf1Jw7404yLWw-29" edge="1">
          <mxGeometry relative="1" as="geometry">
            <mxPoint x="320" y="720" as="targetPoint" />
          </mxGeometry>
        </mxCell>
        <mxCell id="pVk70oFYf1Jw7404yLWw-47" value="TRUE" style="edgeLabel;html=1;align=center;verticalAlign=middle;resizable=0;points=[];" parent="pVk70oFYf1Jw7404yLWw-30" vertex="1" connectable="0">
          <mxGeometry x="-0.2405" y="4" relative="1" as="geometry">
            <mxPoint as="offset" />
          </mxGeometry>
        </mxCell>
        <mxCell id="pVk70oFYf1Jw7404yLWw-15" value="i &amp;gt; n" style="rhombus;whiteSpace=wrap;html=1;" parent="1" vertex="1">
          <mxGeometry x="350" y="506" width="150" height="80" as="geometry" />
        </mxCell>
        <mxCell id="pVk70oFYf1Jw7404yLWw-18" value="" style="edgeStyle=orthogonalEdgeStyle;rounded=0;orthogonalLoop=1;jettySize=auto;html=1;" parent="1" source="pVk70oFYf1Jw7404yLWw-17" target="pVk70oFYf1Jw7404yLWw-6" edge="1">
          <mxGeometry relative="1" as="geometry" />
        </mxCell>
        <mxCell id="pVk70oFYf1Jw7404yLWw-17" value="i = 1" style="rounded=0;whiteSpace=wrap;html=1;" parent="1" vertex="1">
          <mxGeometry x="365" y="250" width="120" height="60" as="geometry" />
        </mxCell>
        <mxCell id="pVk70oFYf1Jw7404yLWw-25" value="" style="edgeStyle=orthogonalEdgeStyle;rounded=0;orthogonalLoop=1;jettySize=auto;html=1;" parent="1" source="pVk70oFYf1Jw7404yLWw-22" target="pVk70oFYf1Jw7404yLWw-24" edge="1">
          <mxGeometry relative="1" as="geometry" />
        </mxCell>
        <mxCell id="pVk70oFYf1Jw7404yLWw-22" value="sum = i*i + sum" style="whiteSpace=wrap;html=1;" parent="1" vertex="1">
          <mxGeometry x="365" y="644" width="120" height="60" as="geometry" />
        </mxCell>
        <mxCell id="pVk70oFYf1Jw7404yLWw-27" style="edgeStyle=orthogonalEdgeStyle;rounded=0;orthogonalLoop=1;jettySize=auto;html=1;exitX=1;exitY=0.5;exitDx=0;exitDy=0;entryX=1;entryY=0.5;entryDx=0;entryDy=0;" parent="1" source="pVk70oFYf1Jw7404yLWw-24" target="pVk70oFYf1Jw7404yLWw-15" edge="1">
          <mxGeometry relative="1" as="geometry" />
        </mxCell>
        <mxCell id="pVk70oFYf1Jw7404yLWw-24" value="i += 1" style="whiteSpace=wrap;html=1;" parent="1" vertex="1">
          <mxGeometry x="365" y="775" width="120" height="60" as="geometry" />
        </mxCell>
        <mxCell id="pVk70oFYf1Jw7404yLWw-29" value="write &quot; il risultato&quot;" style="shape=parallelogram;perimeter=parallelogramPerimeter;whiteSpace=wrap;html=1;fixedSize=1;" parent="1" vertex="1">
          <mxGeometry x="245" y="480" width="120" height="60" as="geometry" />
        </mxCell>
        <mxCell id="pVk70oFYf1Jw7404yLWw-36" value="" style="endArrow=classic;html=1;rounded=0;exitX=0;exitY=0.5;exitDx=0;exitDy=0;" parent="1" source="pVk70oFYf1Jw7404yLWw-41" edge="1">
          <mxGeometry width="50" height="50" relative="1" as="geometry">
            <mxPoint x="360" y="660" as="sourcePoint" />
            <mxPoint x="210" y="510" as="targetPoint" />
          </mxGeometry>
        </mxCell>
        <mxCell id="pVk70oFYf1Jw7404yLWw-42" value="" style="endArrow=classic;html=1;rounded=0;exitX=0;exitY=0.5;exitDx=0;exitDy=0;" parent="1" source="pVk70oFYf1Jw7404yLWw-29" target="pVk70oFYf1Jw7404yLWw-41" edge="1">
          <mxGeometry width="50" height="50" relative="1" as="geometry">
            <mxPoint x="255" y="510" as="sourcePoint" />
            <mxPoint x="210" y="510" as="targetPoint" />
          </mxGeometry>
        </mxCell>
        <mxCell id="pVk70oFYf1Jw7404yLWw-43" value="" style="edgeStyle=orthogonalEdgeStyle;rounded=0;orthogonalLoop=1;jettySize=auto;html=1;" parent="1" target="pVk70oFYf1Jw7404yLWw-41" edge="1">
          <mxGeometry relative="1" as="geometry">
            <mxPoint x="208" y="430" as="sourcePoint" />
            <mxPoint x="208" y="520" as="targetPoint" />
          </mxGeometry>
        </mxCell>
        <mxCell id="pVk70oFYf1Jw7404yLWw-45" style="edgeStyle=orthogonalEdgeStyle;rounded=0;orthogonalLoop=1;jettySize=auto;html=1;exitX=0.5;exitY=1;exitDx=0;exitDy=0;" parent="1" source="pVk70oFYf1Jw7404yLWw-41" target="pVk70oFYf1Jw7404yLWw-13" edge="1">
          <mxGeometry relative="1" as="geometry" />
        </mxCell>
        <mxCell id="pVk70oFYf1Jw7404yLWw-41" value="" style="ellipse;whiteSpace=wrap;html=1;aspect=fixed;" parent="1" vertex="1">
          <mxGeometry x="198" y="500" width="20" height="20" as="geometry" />
        </mxCell>
      </root>
    </mxGraphModel>
  </diagram>
</mxfile>
